<svg width="82" height="18" viewBox="0 0 82 18" fill="none" xmlns="http://www.w3.org/2000/svg">
<path d="M8.87888 17.2501C14.5314 17.2501 16.7323 14.699 16.7323 11.8227C16.7323 9.6718 15.6318 7.57088 11.53 6.97062L6.27774 6.19528C5.37735 6.07022 5.07722 5.82011 5.07722 5.29488C5.07722 4.56957 5.60245 4.24442 8.0035 4.24442C11.1549 4.24442 11.6801 4.6446 11.6801 5.84512V6.22029H16.3822V6.07022C16.3822 2.31858 13.831 -0.00743457 8.50372 -0.00743457C2.45107 -0.00743457 0.375164 2.79379 0.375164 5.46996C0.375164 8.17114 1.95085 9.84687 5.07722 10.2721L10.3295 10.9724C11.7051 11.1474 12.0303 11.3976 12.0303 11.9978C12.0303 12.7481 11.7301 12.9732 8.87888 12.9732C5.7275 12.9732 5.32733 12.6731 5.32733 11.5476V11.0224H0.625273V11.1725C0.625273 15.4243 3.75164 17.2501 8.87888 17.2501ZM27.2768 17V12.7732H25.0258C23.9503 12.7732 23.6502 12.523 23.6502 11.5226V8.24617H27.2768V4.39449H23.6502V2.21854H18.9481V4.39449H17.0973V8.24617H18.9481V12.1979C18.9481 15.4743 20.8239 17 23.9753 17H27.2768ZM33.5764 17.2501C37.0029 17.2501 38.4035 15.2742 38.6786 13.1733H38.9287V17H43.3307V4.39449H38.6286V10.8973C38.6286 12.523 38.1034 13.0483 35.9274 13.0483C33.7765 13.0483 33.1012 12.498 33.1012 10.7473V4.39449H28.3991V12.473C28.3991 15.1992 30.0499 17.2501 33.5764 17.2501ZM50.4668 17.2501C53.4181 17.2501 54.9187 16.0996 55.3189 13.5985H55.569V17H59.9709V0.242675H55.2689V7.64591H55.0188C54.6436 5.54499 53.243 4.14438 50.2667 4.14438C46.5651 4.14438 44.4892 6.59545 44.4892 10.6972C44.4892 14.774 46.6151 17.2501 50.4668 17.2501ZM49.2412 10.6972C49.2412 9.02151 49.9916 8.42125 52.1675 8.42125C54.2684 8.42125 55.2689 8.7714 55.2689 10.5472V10.7223C55.2689 12.5481 54.2684 12.9482 52.1675 12.9482C49.9916 12.9482 49.2412 12.373 49.2412 10.6972ZM66.1723 3.24399V0.242675H61.4702V3.24399H66.1723ZM66.1723 17V4.39449H61.4702V17H66.1723ZM74.6522 17.2501C79.0291 17.2501 82.0054 14.774 82.0054 10.6972C82.0054 6.59545 79.0291 4.14438 74.6522 4.14438C70.2752 4.14438 67.2989 6.59545 67.2989 10.6972C67.2989 14.774 70.2752 17.2501 74.6522 17.2501ZM74.6522 13.0983C72.5262 13.0983 71.951 12.523 71.951 10.6972C71.951 8.87145 72.5262 8.27118 74.6522 8.27118C76.7781 8.27118 77.3533 8.87145 77.3533 10.6972C77.3533 12.523 76.7781 13.0983 74.6522 13.0983Z" fill="white"/>
</svg>
